<?xml version="1.0" encoding="utf-8"?>
<!-- Generator: Adobe Illustrator 16.0.0, SVG Export Plug-In . SVG Version: 6.00 Build 0)  -->
<!DOCTYPE svg PUBLIC "-//W3C//DTD SVG 1.1//EN" "http://www.w3.org/Graphics/SVG/1.1/DTD/svg11.dtd">
<svg version="1.1" id="Capa_1" xmlns="http://www.w3.org/2000/svg" xmlns:xlink="http://www.w3.org/1999/xlink" x="0px" y="0px"
	 width="862.899px" height="862.9px" viewBox="0 0 862.899 862.9" enable-background="new 0 0 862.899 862.9" xml:space="preserve">
<circle fill="none" stroke="#000000" stroke-width="26.9527" stroke-miterlimit="10" cx="406.504" cy="630.084" r="75.876"/>
<path fill="none" stroke="#000000" stroke-width="26.9527" stroke-miterlimit="10" d="M573.946,387.527
	c-15.023-9.793-30.998-18.256-47.73-25.292c-37.938-16.069-78.252-24.246-119.805-24.246c-42.407,0-83.578,8.462-122.277,25.292
	c-37.367,16.164-70.646,39.269-98.981,68.65l95.748,92.516c33.183-34.325,77.778-53.247,125.509-53.247
	c46.592,0,90.424,18.161,123.417,51.155l24.151-24.148l-45.354-45.357L573.946,387.527z"/>
<path fill="none" stroke="#000000" stroke-width="26.9527" stroke-miterlimit="10" d="M406.504,260.211
	c102.312,0,198.63,39.649,271.273,111.627l93.656-94.607c-47.541-47.066-102.786-84.054-164.207-109.917
	C543.616,140.597,476.012,127,406.504,127c-69.98,0-137.87,13.692-201.861,40.791c-61.804,26.148-117.237,63.516-164.779,111.152
	l94.132,94.132C206.735,300.335,303.53,260.211,406.504,260.211z"/>
<polygon fill="none" stroke="#000000" stroke-width="26.9527" stroke-miterlimit="10" points="576.762,383.404 512.959,447.202 
	598.059,532.302 512.959,617.401 576.762,681.203 661.862,596.104 746.96,681.203 810.759,617.401 725.66,532.302 810.759,447.202 
	746.96,383.404 661.862,468.501 "/>
</svg>
