<?xml version="1.0" encoding="iso-8859-1"?>
<!-- Generator: Adobe Illustrator 19.0.0, SVG Export Plug-In . SVG Version: 6.00 Build 0)  -->
<svg version="1.1" id="Layer_1" xmlns="http://www.w3.org/2000/svg" xmlns:xlink="http://www.w3.org/1999/xlink" x="0px" y="0px"
	 viewBox="0 0 512.001 512.001" style="enable-background:new 0 0 512.001 512.001;" xml:space="preserve">
<g>
	<g>
		<path d="M398.427,0.011H33.107c-4.144,0-7.504,3.36-7.504,7.504v51.24C11.008,61.76,0,74.71,0,90.18s11.008,28.419,25.603,31.425
			v13.656C11.008,138.268,0,151.216,0,166.687c0,15.471,11.008,28.419,25.603,31.425v13.656C11.008,214.773,0,227.722,0,243.192
			c0,15.471,11.008,28.419,25.603,31.425v13.656C11.008,291.28,0,304.228,0,319.7c0,15.471,11.008,28.419,25.603,31.425v13.656
			C11.008,367.787,0,380.735,0,396.206c0,15.471,11.008,28.419,25.603,31.425v51.24c0,4.144,3.36,7.504,7.504,7.504h68.13
			c4.144,0,7.504-3.36,7.504-7.504c-0.001-4.144-3.36-7.504-7.505-7.504H40.61v-89.935c5.101,2.956,8.549,8.464,8.549,14.772
			c0,4.144,3.36,7.504,7.504,7.504s7.504-3.36,7.504-7.504c0-14.738-9.993-27.179-23.556-30.924v-60.355
			c5.101,2.956,8.549,8.464,8.549,14.772c0,4.144,3.36,7.504,7.504,7.504s7.504-3.36,7.504-7.504
			c0-14.738-9.993-27.179-23.556-30.924v-60.355c5.101,2.956,8.549,8.464,8.549,14.772c0,4.144,3.36,7.504,7.504,7.504
			s7.504-3.36,7.504-7.504c0-14.738-9.993-27.179-23.556-30.924v-60.355c5.101,2.956,8.549,8.464,8.549,14.772
			c0,4.144,3.36,7.504,7.504,7.504s7.504-3.36,7.504-7.504c0-14.738-9.993-27.179-23.556-30.924V75.408
			c5.101,2.956,8.549,8.464,8.549,14.772c0,4.144,3.36,7.504,7.504,7.504s7.504-3.36,7.504-7.504
			c0-14.738-9.993-27.179-23.556-30.924V15.018h350.313V65.6c0,4.144,3.36,7.504,7.504,7.504c4.144,0,7.504-3.36,7.504-7.504V7.515
			C405.931,3.371,402.571,0.011,398.427,0.011z M25.603,411.997c-6.21-2.558-10.596-8.669-10.596-15.791
			c0-7.121,4.386-13.232,10.596-15.79V411.997z M25.603,335.49c-6.21-2.558-10.596-8.669-10.596-15.79
			c0-7.121,4.386-13.232,10.596-15.791V335.49z M25.603,258.983c-6.21-2.557-10.596-8.668-10.596-15.79
			c0-7.121,4.386-13.232,10.596-15.791V258.983z M25.603,182.478c-6.21-2.558-10.596-8.669-10.596-15.79
			c0-7.121,4.386-13.232,10.596-15.791V182.478z M25.603,105.97c-6.21-2.557-10.596-8.668-10.596-15.791
			c0-7.121,4.386-13.232,10.596-15.79V105.97z"/>
	</g>
</g>
<g>
	<g>
		<path d="M156.997,106.137c-2.93-2.93-7.682-2.93-10.611,0l-15.165,15.165l-4.929-4.929c-2.93-2.93-7.682-2.93-10.611,0
			c-2.93,2.93-2.93,7.682,0,10.611l10.235,10.235c1.465,1.465,3.386,2.198,5.306,2.198s3.841-0.732,5.305-2.198l20.471-20.471
			C159.928,113.818,159.928,109.067,156.997,106.137z"/>
	</g>
</g>
<g>
	<g>
		<path d="M171.148,79.726h-69.911c-4.144,0-7.504,3.36-7.504,7.504v69.911c0,4.144,3.36,7.504,7.504,7.504h69.911
			c4.144,0,7.504-3.36,7.504-7.504V87.229C178.652,83.085,175.292,79.726,171.148,79.726z M163.645,149.637h-54.904V94.733h54.904
			V149.637z"/>
	</g>
</g>
<g>
	<g>
		<path d="M323.492,96.686H208.353c-4.144,0-7.504,3.36-7.504,7.504s3.36,7.504,7.504,7.504h115.138c4.144,0,7.504-3.36,7.504-7.504
			S327.635,96.686,323.492,96.686z"/>
	</g>
</g>
<g>
	<g>
		<path d="M274.228,131.661h-65.875c-4.144,0-7.504,3.36-7.504,7.504s3.36,7.504,7.504,7.504h65.875c4.144,0,7.504-3.36,7.504-7.504
			S278.372,131.661,274.228,131.661z"/>
	</g>
</g>
<g>
	<g>
		<path d="M156.997,225.328c-2.93-2.93-7.682-2.93-10.611,0l-15.165,15.165l-4.929-4.929c-2.93-2.93-7.682-2.93-10.611,0
			c-2.93,2.93-2.93,7.682,0,10.611l10.235,10.235c1.465,1.465,3.386,2.198,5.306,2.198s3.841-0.733,5.305-2.198l20.471-20.471
			C159.928,233.009,159.928,228.257,156.997,225.328z"/>
	</g>
</g>
<g>
	<g>
		<path d="M171.148,198.916h-69.911c-4.144,0-7.504,3.36-7.504,7.504v69.911c0,4.144,3.36,7.504,7.504,7.504h69.911
			c4.144,0,7.504-3.36,7.504-7.504V206.42C178.652,202.276,175.292,198.916,171.148,198.916z M163.645,268.828h-54.904v-54.904
			h54.904V268.828z"/>
	</g>
</g>
<g>
	<g>
		<path d="M323.492,215.876H208.353c-4.144,0-7.504,3.36-7.504,7.504s3.36,7.504,7.504,7.504h115.138
			c4.145,0,7.505-3.36,7.505-7.504S327.635,215.876,323.492,215.876z"/>
	</g>
</g>
<g>
	<g>
		<path d="M274.228,250.851h-65.875c-4.144,0-7.504,3.36-7.504,7.504s3.36,7.504,7.504,7.504h65.875c4.144,0,7.504-3.36,7.504-7.504
			S278.372,250.851,274.228,250.851z"/>
	</g>
</g>
<g>
	<g>
		<path d="M156.997,344.518c-2.929-2.93-7.681-2.93-10.611,0l-15.165,15.165l-4.929-4.929c-2.93-2.93-7.682-2.93-10.611,0
			c-2.93,2.93-2.93,7.682,0,10.611l10.235,10.235c1.465,1.466,3.386,2.198,5.306,2.198s3.841-0.733,5.305-2.198l20.471-20.471
			C159.928,352.198,159.928,347.447,156.997,344.518z"/>
	</g>
</g>
<g>
	<g>
		<path d="M171.148,318.106h-69.911c-4.144,0-7.504,3.36-7.504,7.504v69.911c0,4.144,3.36,7.504,7.504,7.504h69.911
			c4.144,0,7.504-3.36,7.504-7.504V325.61C178.652,321.466,175.292,318.106,171.148,318.106z M163.645,388.017h-54.904v-54.904
			h54.904V388.017z"/>
	</g>
</g>
<g>
	<g>
		<path d="M405.93,272.187V95.615c0-4.144-3.36-7.504-7.504-7.504c-4.144,0-7.504,3.36-7.504,7.504v175.726
			c-1.12,0.007-2.234,0.032-3.347,0.07c-0.254,0.009-0.507,0.023-0.761,0.034c-1.033,0.041-2.064,0.096-3.09,0.163
			c-0.37,0.024-0.74,0.05-1.109,0.077c-1.096,0.082-2.188,0.177-3.275,0.288c-0.168,0.017-0.336,0.03-0.504,0.048
			c-1.242,0.132-2.476,0.288-3.706,0.457c-0.331,0.046-0.66,0.096-0.99,0.144c-0.961,0.141-1.92,0.293-2.873,0.457
			c-0.319,0.055-0.64,0.107-0.958,0.165c-1.218,0.219-2.43,0.453-3.636,0.708c-0.161,0.034-0.32,0.073-0.481,0.108
			c-1.059,0.229-2.111,0.473-3.159,0.73c-0.331,0.081-0.661,0.164-0.992,0.248c-1.016,0.258-2.028,0.529-3.033,0.813
			c-0.186,0.053-0.374,0.101-0.56,0.155c-1.186,0.341-2.363,0.702-3.535,1.078c-0.257,0.083-0.512,0.17-0.768,0.254
			c-0.951,0.313-1.897,0.637-2.837,0.973c-0.277,0.099-0.555,0.196-0.831,0.297c-2.322,0.849-4.61,1.768-6.863,2.753
			c-0.258,0.113-0.516,0.228-0.773,0.343c-0.974,0.434-1.942,0.88-2.901,1.34c-0.157,0.075-0.316,0.148-0.472,0.223
			c-1.127,0.545-2.243,1.108-3.351,1.686c-0.146,0.076-0.29,0.156-0.436,0.233c-0.963,0.509-1.919,1.031-2.867,1.566
			c-0.209,0.118-0.418,0.235-0.626,0.354c-2.168,1.239-4.293,2.541-6.375,3.908c-0.167,0.109-0.332,0.221-0.498,0.331
			c-0.943,0.626-1.878,1.264-2.802,1.916c-0.103,0.073-0.207,0.143-0.31,0.216c-1.055,0.748-2.097,1.512-3.125,2.293
			c-0.011,0.008-0.022,0.017-0.033,0.026c-0.983,0.746-1.952,1.511-2.91,2.287c-0.132,0.107-0.264,0.214-0.396,0.321
			c-1.976,1.612-3.901,3.285-5.77,5.016c-0.072,0.067-0.143,0.134-0.215,0.201c-0.891,0.83-1.77,1.673-2.636,2.529
			c-0.057,0.057-0.115,0.113-0.173,0.17c-1.835,1.822-3.61,3.704-5.326,5.64c-0.069,0.078-0.137,0.155-0.206,0.233
			c-1.726,1.958-3.391,3.971-4.988,6.039c-0.004,0.005-0.008,0.01-0.012,0.015c-0.793,1.027-1.569,2.068-2.329,3.121
			c-0.031,0.043-0.062,0.086-0.093,0.129c-1.532,2.127-2.995,4.306-4.389,6.533c-0.034,0.055-0.068,0.109-0.102,0.164
			c-1.398,2.242-2.725,4.531-3.977,6.868h-77.165c-4.144,0-7.504,3.36-7.504,7.504s3.36,7.504,7.504,7.504h70.409
			c-0.006,0.016-0.01,0.031-0.016,0.047c-0.553,1.499-1.073,3.014-1.568,4.54c-0.053,0.164-0.107,0.327-0.159,0.491
			c-0.48,1.504-0.931,3.018-1.353,4.547c-0.041,0.15-0.081,0.3-0.121,0.449c-0.877,3.229-1.627,6.508-2.234,9.838
			c-0.003,0.019-0.008,0.037-0.011,0.055h-64.947c-4.144,0-7.504,3.36-7.504,7.504s3.36,7.504,7.504,7.504h63.181
			c0,0.003,0,0.007,0,0.01c-0.058,1.06-0.102,2.122-0.132,3.189c-0.001,0.038-0.003,0.075-0.004,0.113
			c-0.03,1.098-0.047,2.199-0.047,3.304c0,0.984,0.014,1.968,0.037,2.948c0.008,0.326,0.023,0.651,0.033,0.977
			c0.021,0.654,0.043,1.309,0.075,1.961c0.018,0.38,0.043,0.758,0.065,1.138c0.035,0.601,0.071,1.202,0.115,1.801
			c0.028,0.386,0.061,0.772,0.092,1.158c0.049,0.596,0.101,1.193,0.159,1.788c0.036,0.369,0.074,0.738,0.114,1.107
			c0.067,0.627,0.139,1.254,0.215,1.879c0.04,0.323,0.079,0.646,0.122,0.968c0.092,0.701,0.191,1.4,0.294,2.098
			c0.036,0.239,0.07,0.478,0.107,0.716c0.133,0.859,0.276,1.717,0.427,2.571c0.013,0.07,0.024,0.141,0.036,0.211
			c3.881,21.692,13.633,41.851,28.278,58.383H131.251c-4.144,0-7.504,3.36-7.504,7.504c0,4.144,3.36,7.504,7.504,7.504h186.289
			c20.446,16.04,46.193,25.614,74.135,25.614c66.348,0,120.325-53.978,120.325-120.326C512,330.14,465.583,279.261,405.93,272.187z
			 M391.675,496.982c-50.707,0-93.156-36.022-103.109-83.821c-0.029-0.141-0.06-0.281-0.089-0.422
			c-0.129-0.635-0.249-1.274-0.367-1.912c-0.055-0.298-0.111-0.597-0.163-0.896c-0.096-0.546-0.186-1.096-0.273-1.645
			c-0.063-0.394-0.124-0.789-0.182-1.185c-0.072-0.489-0.141-0.979-0.206-1.472c-0.061-0.46-0.118-0.92-0.173-1.382
			c-0.053-0.445-0.106-0.89-0.153-1.338c-0.054-0.512-0.103-1.026-0.15-1.54c-0.038-0.411-0.077-0.821-0.11-1.234
			c-0.045-0.558-0.081-1.119-0.116-1.679c-0.024-0.375-0.051-0.749-0.072-1.125c-0.034-0.631-0.057-1.265-0.079-1.898
			c-0.011-0.31-0.027-0.618-0.035-0.929c-0.025-0.945-0.039-1.894-0.039-2.843c0-58.073,47.245-105.318,105.318-105.318
			c1.008,0,2.021,0.016,3.055,0.047c0.052,0.001,0.103,0.004,0.155,0.006c0.992,0.032,2.004,0.077,3.047,0.138
			c55.17,3.25,99.061,49.155,99.061,105.127C496.993,449.736,449.747,496.982,391.675,496.982z"/>
	</g>
</g>
<g>
	<g>
		<path d="M391.675,308.598c-16.645,0-32.707,4.907-46.448,14.191c-3.434,2.32-4.337,6.984-2.017,10.419
			c2.321,3.434,6.984,4.337,10.419,2.017c11.251-7.602,24.408-11.619,38.047-11.619c37.528,0,68.058,30.53,68.058,68.058
			s-30.53,68.058-68.058,68.058s-68.058-30.531-68.058-68.058c0-13.417,3.897-26.393,11.27-37.525
			c2.288-3.455,1.343-8.111-2.113-10.399c-3.455-2.289-8.111-1.343-10.399,2.113c-9.005,13.596-13.766,29.438-13.766,45.811
			c0,45.803,37.263,83.065,83.065,83.065s83.065-37.264,83.065-83.065C474.74,345.861,437.478,308.598,391.675,308.598z"/>
	</g>
</g>
<g>
	<g>
		<path d="M399.283,368.729v-27.31c0-4.144-3.36-7.504-7.504-7.504c-4.144,0-7.504,3.36-7.504,7.504v27.31
			c-9.09,3.125-15.642,11.754-15.642,21.89c0,4.183,1.122,8.108,3.07,11.497l-10.392,11.654c-2.757,3.094-2.485,7.837,0.607,10.595
			c1.431,1.276,3.215,1.903,4.991,1.903c2.064,0,4.121-0.847,5.603-2.509l10.465-11.737c2.715,1.121,5.687,1.743,8.801,1.743
			c12.762,0,23.146-10.383,23.146-23.146C414.925,380.483,408.372,371.854,399.283,368.729z M391.78,398.759
			c-4.488,0-8.139-3.651-8.139-8.139c0-4.488,3.651-8.139,8.139-8.139c4.487,0,8.139,3.651,8.139,8.139
			C399.919,395.109,396.268,398.759,391.78,398.759z"/>
	</g>
</g>
<g>
</g>
<g>
</g>
<g>
</g>
<g>
</g>
<g>
</g>
<g>
</g>
<g>
</g>
<g>
</g>
<g>
</g>
<g>
</g>
<g>
</g>
<g>
</g>
<g>
</g>
<g>
</g>
<g>
</g>
</svg>
